<svg width="82" height="21" viewBox="0 0 82 21" fill="none" xmlns="http://www.w3.org/2000/svg">
<path d="M4.712 0.551999C5.528 0.551999 6.28733 0.529333 6.99 0.484C7.69267 0.438666 8.40667 0.415999 9.132 0.415999C12.3053 0.415999 14.6627 1.17533 16.204 2.694C17.7453 4.19 18.516 6.502 18.516 9.63C18.516 13.098 17.6547 15.7387 15.932 17.552C14.2093 19.3653 11.8407 20.2493 8.826 20.204C8.46333 20.1813 8.02133 20.1587 7.5 20.136C7.00133 20.1133 6.50267 20.0793 6.004 20.034C5.528 20.0113 5.10867 20 4.746 20H0.19V18.402L2.196 18.028C2.55867 17.96 2.74 17.7447 2.74 17.382V3.238C2.74 2.898 2.55867 2.694 2.196 2.626L0.19 2.218V0.551999H4.712ZM6.786 18.164C7.03533 18.2547 7.364 18.3227 7.772 18.368C8.20267 18.4133 8.59933 18.436 8.962 18.436C10.05 18.4133 10.968 18.1413 11.716 17.62C12.4867 17.0987 13.076 16.2487 13.484 15.07C13.892 13.8687 14.096 12.2707 14.096 10.276C14.096 7.624 13.6767 5.59533 12.838 4.19C11.9993 2.78467 10.628 2.082 8.724 2.082C8.248 2.082 7.84 2.116 7.5 2.184C7.16 2.22933 6.922 2.26333 6.786 2.286V18.164ZM32.6427 5.652L32.0307 3.34C31.8947 2.95467 31.6567 2.694 31.3167 2.558C31.0674 2.49 30.7387 2.43333 30.3307 2.388C29.9227 2.32 29.5034 2.286 29.0727 2.286H26.6587V9.086L32.2007 8.882V11.228L26.6587 11.092V18.164H29.6507C30.1041 18.164 30.5574 18.1413 31.0107 18.096C31.4641 18.0507 31.8154 17.9827 32.0647 17.892C32.2461 17.8013 32.3821 17.6993 32.4727 17.586C32.5634 17.4727 32.6427 17.3027 32.7107 17.076L33.7307 14.152L35.6687 14.458C35.6687 15.3873 35.6234 16.3053 35.5327 17.212C35.4421 18.1187 35.3174 19.048 35.1587 20H20.0627V18.402L22.0007 18.028C22.4087 17.96 22.6127 17.722 22.6127 17.314V3.34C22.6127 2.932 22.4087 2.694 22.0007 2.626L20.0627 2.218V0.551999H34.5467C34.6374 1.39067 34.6827 2.22933 34.6827 3.068C34.6827 3.90667 34.6487 4.768 34.5807 5.652H32.6427ZM60.7764 17.314C60.8444 17.6767 61.0597 17.9033 61.4224 17.994L63.2584 18.402V20H54.5204V18.402L56.7984 18.028L54.4524 1.538H55.1664L50.7124 19.286H47.5504L42.2124 1.538H43.0284L41.1584 18.028L43.8104 18.402V20H36.3984V18.402L38.2684 17.994C38.6537 17.9033 38.8577 17.6767 38.8804 17.314L40.5464 3.374C40.6144 2.94333 40.4331 2.694 40.0024 2.626L37.8604 2.218V0.551999H46.0544L50.4744 16.294H49.2844L53.2284 0.551999H61.4564V2.218L59.2464 2.626C58.7931 2.694 58.6004 2.94333 58.6684 3.374L60.7764 17.314ZM72.3226 20.306C69.5119 20.306 67.4266 19.4447 66.0666 17.722C64.7293 15.9993 64.0606 13.6307 64.0606 10.616C64.0606 8.41733 64.4119 6.54733 65.1146 5.006C65.8173 3.46467 66.8259 2.286 68.1406 1.47C69.4779 0.653999 71.0873 0.245999 72.9686 0.245999C75.8019 0.245999 77.8873 1.11867 79.2246 2.864C80.5846 4.58667 81.2646 6.944 81.2646 9.936C81.2646 12.1347 80.9133 14.0047 80.2106 15.546C79.5306 17.0873 78.5219 18.266 77.1846 19.082C75.8473 19.898 74.2266 20.306 72.3226 20.306ZM72.6966 2.014C71.3366 2.014 70.2939 2.68267 69.5686 4.02C68.8433 5.33467 68.4806 7.454 68.4806 10.378C68.4806 13.2113 68.8206 15.2853 69.5006 16.6C70.2033 17.9147 71.2346 18.572 72.5946 18.572C73.9546 18.572 74.9973 17.9033 75.7226 16.566C76.4479 15.2287 76.8106 13.0867 76.8106 10.14C76.8106 7.30667 76.4706 5.244 75.7906 3.952C75.1106 2.66 74.0793 2.014 72.6966 2.014Z" fill="#2196F3"/>
<path d="M6.99 0.484L7.05438 1.48193L7.05438 1.48193L6.99 0.484ZM16.204 2.694L15.5021 3.40635L15.5075 3.41158L16.204 2.694ZM15.932 17.552L16.657 18.2407L16.657 18.2407L15.932 17.552ZM8.826 20.204L8.76362 21.2021L8.78727 21.2035L8.81096 21.2039L8.826 20.204ZM7.5 20.136L7.45459 21.135L7.45656 21.1351L7.5 20.136ZM6.004 20.034L6.09454 19.0381L6.07308 19.0362L6.05157 19.0351L6.004 20.034ZM0.19 20H-0.81V21H0.19V20ZM0.19 18.402L0.00671759 17.4189L-0.81 17.5712V18.402H0.19ZM2.196 18.028L2.37928 19.0111L2.38029 19.0109L2.196 18.028ZM2.196 2.626L1.99669 3.60594L2.00419 3.60746L2.01171 3.60887L2.196 2.626ZM0.19 2.218H-0.81V3.03508L-0.00930857 3.19794L0.19 2.218ZM0.19 0.551999V-0.448001H-0.81V0.551999H0.19ZM6.786 18.164H5.786V18.8644L6.44426 19.1038L6.786 18.164ZM7.772 18.368L7.66157 19.3619L7.66732 19.3625L7.772 18.368ZM8.962 18.436V19.436H8.97242L8.98283 19.4358L8.962 18.436ZM11.716 17.62L11.1556 16.7916L11.1442 16.7996L11.716 17.62ZM13.484 15.07L14.429 15.3971L14.4309 15.3916L13.484 15.07ZM12.838 4.19L11.9793 4.70246L11.9793 4.70246L12.838 4.19ZM7.5 2.184L7.63217 3.17523L7.66431 3.17094L7.69611 3.16458L7.5 2.184ZM6.786 2.286L6.6216 1.2996L5.786 1.43887V2.286H6.786ZM4.712 1.552C5.5462 1.552 6.32724 1.52884 7.05438 1.48193L6.92562 -0.513925C6.24743 -0.470172 5.5098 -0.448001 4.712 -0.448001V1.552ZM7.05438 1.48193C7.73499 1.43801 8.4275 1.416 9.132 1.416V-0.584001C8.38583 -0.584001 7.65035 -0.560683 6.92562 -0.513925L7.05438 1.48193ZM9.132 1.416C12.1646 1.416 14.2198 2.14279 15.5022 3.40632L16.9059 1.98167C15.1056 0.207873 12.4461 -0.584001 9.132 -0.584001V1.416ZM15.5075 3.41158C16.781 4.6476 17.516 6.64848 17.516 9.63H19.516C19.516 6.35552 18.7097 3.7324 16.9005 1.97642L15.5075 3.41158ZM17.516 9.63C17.516 12.9418 16.6945 15.2975 15.207 16.8633L16.657 18.2407C18.6149 16.1798 19.516 13.2542 19.516 9.63H17.516ZM15.207 16.8633C13.7157 18.433 11.6385 19.2462 8.84104 19.2041L8.81096 21.2039C12.0428 21.2525 14.7029 20.2977 16.657 18.2407L15.207 16.8633ZM8.88838 19.2059C8.51734 19.1828 8.06862 19.1598 7.54344 19.1369L7.45656 21.1351C7.97404 21.1576 8.40932 21.1799 8.76362 21.2021L8.88838 19.2059ZM7.54541 19.137C7.06185 19.1151 6.57823 19.0821 6.09454 19.0381L5.91346 21.0299C6.4271 21.0766 6.94082 21.1116 7.45459 21.135L7.54541 19.137ZM6.05157 19.0351C5.56431 19.0119 5.12854 19 4.746 19V21C5.08879 21 5.49169 21.0107 5.95644 21.0329L6.05157 19.0351ZM4.746 19H0.19V21H4.746V19ZM1.19 20V18.402H-0.81V20H1.19ZM0.373282 19.3851L2.37928 19.0111L2.01272 17.0449L0.00671759 17.4189L0.373282 19.3851ZM2.38029 19.0109C2.71728 18.9477 3.08882 18.7922 3.36891 18.4596C3.65075 18.1249 3.74 17.7297 3.74 17.382H1.74C1.74 17.3969 1.73858 17.2907 1.83909 17.1714C1.93785 17.0541 2.03739 17.0403 2.01171 17.0451L2.38029 19.0109ZM3.74 17.382V3.238H1.74V17.382H3.74ZM3.74 3.238C3.74 2.88561 3.64202 2.49257 3.35141 2.16564C3.06927 1.84823 2.7034 1.70371 2.38029 1.64313L2.01171 3.60887C2.05126 3.61629 1.9574 3.60777 1.85659 3.49436C1.74731 3.37143 1.74 3.25039 1.74 3.238H3.74ZM2.39531 1.64606L0.389309 1.23806L-0.00930857 3.19794L1.99669 3.60594L2.39531 1.64606ZM1.19 2.218V0.551999H-0.81V2.218H1.19ZM0.19 1.552H4.712V-0.448001H0.19V1.552ZM6.44426 19.1038C6.79721 19.2321 7.21256 19.312 7.66157 19.3619L7.88243 17.3741C7.51544 17.3333 7.27345 17.2772 7.12774 17.2242L6.44426 19.1038ZM7.66732 19.3625C8.12632 19.4108 8.55844 19.436 8.962 19.436V17.436C8.64022 17.436 8.27901 17.4158 7.87669 17.3735L7.66732 19.3625ZM8.98283 19.4358C10.2293 19.4098 11.3487 19.0949 12.2878 18.4404L11.1442 16.7996C10.5873 17.1877 9.87067 17.4169 8.94117 17.4362L8.98283 19.4358ZM12.2763 18.4483C13.2782 17.7705 13.9741 16.7111 14.429 15.3971L12.539 14.7429C12.1779 15.7862 11.6951 16.4268 11.1557 16.7917L12.2763 18.4483ZM14.4309 15.3916C14.8882 14.0449 15.096 12.3249 15.096 10.276H13.096C13.096 12.2164 12.8958 13.6924 12.5371 14.7484L14.4309 15.3916ZM15.096 10.276C15.096 7.54431 14.6686 5.30604 13.6967 3.67754L11.9793 4.70246C12.6848 5.88463 13.096 7.70368 13.096 10.276H15.096ZM13.6967 3.67754C12.6452 1.91556 10.9119 1.082 8.724 1.082V3.082C10.3441 3.082 11.3535 3.65377 11.9793 4.70246L13.6967 3.67754ZM8.724 1.082C8.20463 1.082 7.72729 1.11874 7.30389 1.20342L7.69611 3.16458C7.95271 3.11326 8.29137 3.082 8.724 3.082V1.082ZM7.36783 1.19277C7.02821 1.23805 6.77551 1.27395 6.6216 1.2996L6.9504 3.27239C7.06849 3.25271 7.29179 3.22061 7.63217 3.17523L7.36783 1.19277ZM5.786 2.286V18.164H7.786V2.286H5.786ZM32.6427 5.652L31.676 5.90789L31.873 6.652H32.6427V5.652ZM32.0307 3.34L32.9974 3.08411L32.9871 3.04517L32.9737 3.00718L32.0307 3.34ZM31.3167 2.558L31.6881 1.62952L31.635 1.60828L31.5799 1.59324L31.3167 2.558ZM30.3307 2.388L30.1663 3.37439L30.1932 3.37887L30.2203 3.38188L30.3307 2.388ZM26.6587 2.286V1.286H25.6587V2.286H26.6587ZM26.6587 9.086H25.6587V10.1235L26.6955 10.0853L26.6587 9.086ZM32.2007 8.882H33.2007V7.84451L32.1639 7.88268L32.2007 8.882ZM32.2007 11.228L32.1762 12.2277L33.2007 12.2528V11.228H32.2007ZM26.6587 11.092L26.6833 10.0923L25.6587 10.0672V11.092H26.6587ZM26.6587 18.164H25.6587V19.164H26.6587V18.164ZM31.0107 18.096L31.1102 19.091L31.1102 19.091L31.0107 18.096ZM32.0647 17.892L32.4065 18.8318L32.4605 18.8121L32.5119 18.7864L32.0647 17.892ZM32.4727 17.586L31.6919 16.9613L31.6919 16.9613L32.4727 17.586ZM32.7107 17.076L31.7665 16.7466L31.7593 16.7675L31.7529 16.7887L32.7107 17.076ZM33.7307 14.152L33.8867 13.1642L33.0616 13.034L32.7865 13.8226L33.7307 14.152ZM35.6687 14.458H36.6687V13.6035L35.8247 13.4702L35.6687 14.458ZM35.5327 17.212L34.5377 17.1125L34.5377 17.1125L35.5327 17.212ZM35.1587 20V21H36.0059L36.1451 20.1644L35.1587 20ZM20.0627 20H19.0627V21H20.0627V20ZM20.0627 18.402L19.8732 17.4201L19.0627 17.5765V18.402H20.0627ZM22.0007 18.028L21.8363 17.0416L21.8238 17.0437L21.8112 17.0461L22.0007 18.028ZM22.0007 2.626L21.7947 3.60455L21.8154 3.60891L21.8363 3.61239L22.0007 2.626ZM20.0627 2.218H19.0627V3.02939L19.8567 3.19655L20.0627 2.218ZM20.0627 0.551999V-0.448001H19.0627V0.551999H20.0627ZM34.5467 0.551999L35.5409 0.444517L35.4445 -0.448001H34.5467V0.551999ZM34.5807 5.652V6.652H35.5068L35.5778 5.7287L34.5807 5.652ZM33.6094 5.39611L32.9974 3.08411L31.064 3.59589L31.676 5.90789L33.6094 5.39611ZM32.9737 3.00718C32.7543 2.38543 32.3284 1.88561 31.6881 1.62952L30.9453 3.48648C30.9851 3.50239 31.0352 3.5239 31.0877 3.67282L32.9737 3.00718ZM31.5799 1.59324C31.2602 1.50606 30.8745 1.44226 30.4412 1.39412L30.2203 3.38188C30.603 3.4244 30.8746 3.47394 31.0536 3.52276L31.5799 1.59324ZM30.4951 1.40161C30.0306 1.32419 29.5562 1.286 29.0727 1.286V3.286C29.4506 3.286 29.8148 3.31581 30.1663 3.37439L30.4951 1.40161ZM29.0727 1.286H26.6587V3.286H29.0727V1.286ZM25.6587 2.286V9.086H27.6587V2.286H25.6587ZM26.6955 10.0853L32.2375 9.88132L32.1639 7.88268L26.6219 8.08668L26.6955 10.0853ZM31.2007 8.882V11.228H33.2007V8.882H31.2007ZM32.2253 10.2283L26.6833 10.0923L26.6342 12.0917L32.1762 12.2277L32.2253 10.2283ZM25.6587 11.092V18.164H27.6587V11.092H25.6587ZM26.6587 19.164H29.6507V17.164H26.6587V19.164ZM29.6507 19.164C30.1375 19.164 30.624 19.1397 31.1102 19.091L30.9112 17.101C30.4908 17.143 30.0707 17.164 29.6507 17.164V19.164ZM31.1102 19.091C31.5963 19.0424 32.0428 18.964 32.4065 18.8318L31.723 16.9522C31.588 17.0013 31.3318 17.0589 30.9112 17.101L31.1102 19.091ZM32.5119 18.7864C32.7747 18.6551 33.0441 18.4726 33.2536 18.2107L31.6919 16.9613C31.7073 16.9421 31.7145 16.9387 31.7027 16.9475C31.6908 16.9564 31.6644 16.9741 31.6175 16.9976L32.5119 18.7864ZM33.2536 18.2107C33.459 17.9539 33.584 17.6451 33.6686 17.3633L31.7529 16.7887C31.7294 16.867 31.7088 16.9191 31.6941 16.9506C31.6788 16.9834 31.6756 16.9817 31.6919 16.9613L33.2536 18.2107ZM33.6549 17.4054L34.6749 14.4814L32.7865 13.8226L31.7665 16.7466L33.6549 17.4054ZM33.5748 15.1398L35.5128 15.4458L35.8247 13.4702L33.8867 13.1642L33.5748 15.1398ZM34.6687 14.458C34.6687 15.3548 34.625 16.2395 34.5377 17.1125L36.5278 17.3115C36.6218 16.3711 36.6687 15.4199 36.6687 14.458H34.6687ZM34.5377 17.1125C34.4493 17.9962 34.3276 18.9039 34.1723 19.8356L36.1451 20.1644C36.3072 19.1921 36.4348 18.2411 36.5278 17.3115L34.5377 17.1125ZM35.1587 19H20.0627V21H35.1587V19ZM21.0627 20V18.402H19.0627V20H21.0627ZM20.2522 19.3839L22.1902 19.0099L21.8112 17.0461L19.8732 17.4201L20.2522 19.3839ZM22.1651 19.0144C22.5259 18.9543 22.9213 18.7966 23.219 18.4493C23.5182 18.1002 23.6127 17.6834 23.6127 17.314H21.6127C21.6127 17.3526 21.6053 17.2588 21.7005 17.1477C21.7942 17.0384 21.8836 17.0337 21.8363 17.0416L22.1651 19.0144ZM23.6127 17.314V3.34H21.6127V17.314H23.6127ZM23.6127 3.34C23.6127 2.97062 23.5182 2.55379 23.219 2.20471C22.9213 1.85736 22.5259 1.69973 22.1651 1.6396L21.8363 3.61239C21.8836 3.62027 21.7942 3.61564 21.7005 3.50629C21.6053 3.39521 21.6127 3.30137 21.6127 3.34H23.6127ZM22.2067 1.64745L20.2687 1.23945L19.8567 3.19655L21.7947 3.60455L22.2067 1.64745ZM21.0627 2.218V0.551999H19.0627V2.218H21.0627ZM20.0627 1.552H34.5467V-0.448001H20.0627V1.552ZM33.5525 0.659481C33.6394 1.46266 33.6827 2.26545 33.6827 3.068H35.6827C35.6827 2.19322 35.6354 1.31867 35.5409 0.444517L33.5525 0.659481ZM33.6827 3.068C33.6827 3.87967 33.6498 4.71538 33.5837 5.5753L35.5778 5.7287C35.6476 4.82062 35.6827 3.93366 35.6827 3.068H33.6827ZM34.5807 4.652H32.6427V6.652H34.5807V4.652ZM60.7764 17.314L59.7876 17.4635L59.7903 17.481L59.7935 17.4983L60.7764 17.314ZM61.4224 17.994L61.1799 18.9641L61.1926 18.9673L61.2055 18.9702L61.4224 17.994ZM63.2584 18.402H64.2584V17.5998L63.4753 17.4258L63.2584 18.402ZM63.2584 20V21H64.2584V20H63.2584ZM54.5204 20H53.5204V21H54.5204V20ZM54.5204 18.402L54.3584 17.4152L53.5204 17.5528V18.402H54.5204ZM56.7984 18.028L56.9604 19.0148L57.9263 18.8562L57.7884 17.8872L56.7984 18.028ZM54.4524 1.538V0.537999H53.3001L53.4624 1.67885L54.4524 1.538ZM55.1664 1.538L56.1363 1.78141L56.4484 0.537999H55.1664V1.538ZM50.7124 19.286V20.286H51.4925L51.6823 19.5294L50.7124 19.286ZM47.5504 19.286L46.5928 19.574L46.8069 20.286H47.5504V19.286ZM42.2124 1.538V0.537999H40.8674L41.2548 1.82602L42.2124 1.538ZM43.0284 1.538L44.022 1.65068L44.1482 0.537999H43.0284V1.538ZM41.1584 18.028L40.1648 17.9153L40.0551 18.8823L41.0188 19.0182L41.1584 18.028ZM43.8104 18.402H44.8104V17.5331L43.95 17.4118L43.8104 18.402ZM43.8104 20V21H44.8104V20H43.8104ZM36.3984 20H35.3984V21H36.3984V20ZM36.3984 18.402L36.1852 17.425L35.3984 17.5967V18.402H36.3984ZM38.2684 17.994L38.4816 18.971L38.4895 18.9693L38.4974 18.9674L38.2684 17.994ZM38.8804 17.314L37.8875 17.1953L37.8841 17.2234L37.8824 17.2516L38.8804 17.314ZM40.5464 3.374L39.5586 3.21804L39.5557 3.23664L39.5535 3.25533L40.5464 3.374ZM40.0024 2.626L39.8153 3.60834L39.8308 3.6113L39.8464 3.61376L40.0024 2.626ZM37.8604 2.218H36.8604V3.0455L37.6733 3.20034L37.8604 2.218ZM37.8604 0.551999V-0.448001H36.8604V0.551999H37.8604ZM46.0544 0.551999L47.0172 0.281675L46.8123 -0.448001H46.0544V0.551999ZM50.4744 16.294V17.294H51.7939L51.4372 16.0237L50.4744 16.294ZM49.2844 16.294L48.3144 16.051L48.003 17.294H49.2844V16.294ZM53.2284 0.551999V-0.448001H52.448L52.2584 0.308971L53.2284 0.551999ZM61.4564 0.551999H62.4564V-0.448001H61.4564V0.551999ZM61.4564 2.218L61.638 3.20138L62.4564 3.05028V2.218H61.4564ZM59.2464 2.626L59.3947 3.61493L59.4114 3.61244L59.428 3.60938L59.2464 2.626ZM58.6684 3.374L59.6572 3.22448L59.6562 3.21804L58.6684 3.374ZM59.7935 17.4983C59.8566 17.8344 60.001 18.1681 60.2639 18.4447C60.5261 18.7207 60.8507 18.8819 61.1799 18.9641L61.6649 17.0239C61.6466 17.0193 61.6471 17.0172 61.6593 17.0239C61.6725 17.0312 61.6929 17.0451 61.7139 17.0673C61.735 17.0894 61.7487 17.1114 61.7563 17.1272C61.7634 17.142 61.7621 17.145 61.7593 17.1297L59.7935 17.4983ZM61.2055 18.9702L63.0415 19.3782L63.4753 17.4258L61.6393 17.0178L61.2055 18.9702ZM62.2584 18.402V20H64.2584V18.402H62.2584ZM63.2584 19H54.5204V21H63.2584V19ZM55.5204 20V18.402H53.5204V20H55.5204ZM54.6824 19.3888L56.9604 19.0148L56.6364 17.0412L54.3584 17.4152L54.6824 19.3888ZM57.7884 17.8872L55.4424 1.39715L53.4624 1.67885L55.8084 18.1688L57.7884 17.8872ZM54.4524 2.538H55.1664V0.537999H54.4524V2.538ZM54.1965 1.29459L49.7425 19.0426L51.6823 19.5294L56.1363 1.78141L54.1965 1.29459ZM50.7124 18.286H47.5504V20.286H50.7124V18.286ZM48.508 18.998L43.17 1.24998L41.2548 1.82602L46.5928 19.574L48.508 18.998ZM42.2124 2.538H43.0284V0.537999H42.2124V2.538ZM42.0348 1.42532L40.1648 17.9153L42.152 18.1407L44.022 1.65068L42.0348 1.42532ZM41.0188 19.0182L43.6708 19.3922L43.95 17.4118L41.298 17.0378L41.0188 19.0182ZM42.8104 18.402V20H44.8104V18.402H42.8104ZM43.8104 19H36.3984V21H43.8104V19ZM37.3984 20V18.402H35.3984V20H37.3984ZM36.6116 19.379L38.4816 18.971L38.0552 17.017L36.1852 17.425L36.6116 19.379ZM38.4974 18.9674C38.8298 18.8892 39.1799 18.7292 39.4537 18.425C39.7341 18.1134 39.8559 17.7381 39.8785 17.3764L37.8824 17.2516C37.8821 17.2557 37.8828 17.2359 37.8961 17.2015C37.91 17.1652 37.9335 17.1244 37.9671 17.087C38.037 17.0094 38.0924 17.0081 38.0394 17.0206L38.4974 18.9674ZM39.8733 17.4327L41.5393 3.49267L39.5535 3.25533L37.8875 17.1953L39.8733 17.4327ZM41.5342 3.52996C41.5922 3.16237 41.5718 2.69063 41.2701 2.27583C40.9685 1.86102 40.526 1.69628 40.1584 1.63824L39.8464 3.61376C39.9095 3.62372 39.773 3.61764 39.6527 3.45217C39.5323 3.2867 39.5686 3.15496 39.5586 3.21804L41.5342 3.52996ZM40.1895 1.64366L38.0475 1.23566L37.6733 3.20034L39.8153 3.60834L40.1895 1.64366ZM38.8604 2.218V0.551999H36.8604V2.218H38.8604ZM37.8604 1.552H46.0544V-0.448001H37.8604V1.552ZM45.0916 0.822323L49.5116 16.5643L51.4372 16.0237L47.0172 0.281675L45.0916 0.822323ZM50.4744 15.294H49.2844V17.294H50.4744V15.294ZM50.2544 16.537L54.1984 0.795028L52.2584 0.308971L48.3144 16.051L50.2544 16.537ZM53.2284 1.552H61.4564V-0.448001H53.2284V1.552ZM60.4564 0.551999V2.218H62.4564V0.551999H60.4564ZM61.2749 1.23462L59.0649 1.64262L59.428 3.60938L61.638 3.20138L61.2749 1.23462ZM59.0981 1.63706C58.7317 1.69202 58.2838 1.84729 57.9706 2.25255C57.6494 2.66826 57.6207 3.15003 57.6806 3.52996L59.6562 3.21804C59.6482 3.16731 59.6818 3.30907 59.5532 3.47545C59.4327 3.63137 59.3078 3.62798 59.3947 3.61493L59.0981 1.63706ZM57.6796 3.52352L59.7876 17.4635L61.7652 17.1645L59.6572 3.22448L57.6796 3.52352ZM66.0666 17.722L65.2767 18.3352L65.2817 18.3416L66.0666 17.722ZM65.1146 5.006L66.0245 5.42081L66.0245 5.42081L65.1146 5.006ZM68.1406 1.47L67.6197 0.616335L67.6132 0.620359L68.1406 1.47ZM79.2246 2.864L78.4308 3.47221L78.4352 3.47796L78.4397 3.48364L79.2246 2.864ZM80.2106 15.546L79.3006 15.1312L79.2957 15.1424L80.2106 15.546ZM77.1846 19.082L77.7055 19.9356L77.7055 19.9356L77.1846 19.082ZM69.5686 4.02L70.4442 4.50309L70.4476 4.49676L69.5686 4.02ZM69.5006 16.6L68.6123 17.0595L68.6187 17.0714L69.5006 16.6ZM75.7226 16.566L76.6016 17.0428L76.6016 17.0428L75.7226 16.566ZM75.7906 3.952L74.9057 4.41775L75.7906 3.952ZM72.3226 19.306C69.7244 19.306 67.9706 18.5199 66.8515 17.1024L65.2817 18.3416C66.8826 20.3695 69.2995 21.306 72.3226 21.306V19.306ZM66.8565 17.1088C65.699 15.6177 65.0606 13.4922 65.0606 10.616H63.0606C63.0606 13.7691 63.7595 16.3809 65.2767 18.3352L66.8565 17.1088ZM65.0606 10.616C65.0606 8.51956 65.3961 6.79923 66.0245 5.42081L64.2047 4.59119C63.4277 6.29543 63.0606 8.31511 63.0606 10.616H65.0606ZM66.0245 5.42081C66.6534 4.04124 67.5367 3.02178 68.668 2.31964L67.6132 0.620359C66.1151 1.55022 64.9811 2.88809 64.2047 4.59119L66.0245 5.42081ZM68.6615 2.32364C69.813 1.62101 71.2339 1.246 72.9686 1.246V-0.754001C70.9406 -0.754001 69.1429 -0.313012 67.6197 0.61636L68.6615 2.32364ZM72.9686 1.246C75.589 1.246 77.3354 2.04255 78.4308 3.47221L80.0184 2.25578C78.4392 0.194784 76.0149 -0.754001 72.9686 -0.754001V1.246ZM78.4397 3.48364C79.6174 4.97533 80.2646 7.08788 80.2646 9.936H82.2646C82.2646 6.80012 81.5518 4.198 80.0095 2.24436L78.4397 3.48364ZM80.2646 9.936C80.2646 12.0324 79.9291 13.7528 79.3007 15.1312L81.1205 15.9608C81.8974 14.2566 82.2646 12.2369 82.2646 9.936H80.2646ZM79.2957 15.1424C78.6915 16.5118 77.8136 17.5268 76.6637 18.2284L77.7055 19.9356C79.2303 19.0052 80.3697 17.6629 81.1255 15.9496L79.2957 15.1424ZM76.6637 18.2284C75.514 18.9299 74.0825 19.306 72.3226 19.306V21.306C74.3707 21.306 76.1805 20.8661 77.7055 19.9356L76.6637 18.2284ZM72.6966 1.014C71.8447 1.014 71.0528 1.22606 70.3548 1.67373C69.6624 2.11773 69.1145 2.75974 68.6896 3.54324L70.4476 4.49676C70.748 3.94293 71.0841 3.58193 71.4344 3.35727C71.779 3.13627 72.1885 3.014 72.6966 3.014V1.014ZM68.693 3.53692C67.84 5.08303 67.4806 7.41688 67.4806 10.378H69.4806C69.4806 7.49112 69.8465 5.58631 70.4442 4.50308L68.693 3.53692ZM67.4806 10.378C67.4806 13.2504 67.8185 15.5245 68.6124 17.0594L70.3888 16.1406C69.8227 15.0461 69.4806 13.1723 69.4806 10.378H67.4806ZM68.6187 17.0714C69.0334 17.8473 69.5745 18.4831 70.2636 18.9223C70.9575 19.3645 71.7462 19.572 72.5946 19.572V17.572C72.083 17.572 71.676 17.4508 71.3386 17.2357C70.9963 17.0176 70.6705 16.6674 70.3825 16.1286L68.6187 17.0714ZM72.5946 19.572C73.4465 19.572 74.2384 19.3599 74.9364 18.9123C75.6288 18.4683 76.1767 17.8263 76.6016 17.0428L74.8436 16.0892C74.5432 16.6431 74.2071 17.0041 73.8568 17.2287C73.5122 17.4497 73.1027 17.572 72.5946 17.572V19.572ZM76.6016 17.0428C77.4508 15.477 77.8106 13.1245 77.8106 10.14H75.8106C75.8106 13.0488 75.445 14.9803 74.8436 16.0892L76.6016 17.0428ZM77.8106 10.14C77.8106 7.26987 77.4734 5.00233 76.6755 3.48625L74.9057 4.41775C75.4677 5.48567 75.8106 7.34346 75.8106 10.14H77.8106ZM76.6755 3.48625C76.2697 2.71524 75.7306 2.0849 75.0379 1.65102C74.3423 1.2153 73.5495 1.014 72.6966 1.014V3.014C73.2264 3.014 73.6406 3.1357 73.9763 3.34597C74.3149 3.5581 74.6315 3.89675 74.9057 4.41775L76.6755 3.48625Z" fill="#2196F3"/>
</svg>
